<?xml version="1.0" encoding="utf-8"?>
<!-- Generator: Adobe Illustrator 19.2.1, SVG Export Plug-In . SVG Version: 6.00 Build 0)  -->
<svg version="1.1" id="layer" xmlns="http://www.w3.org/2000/svg" xmlns:xlink="http://www.w3.org/1999/xlink" x="0px" y="0px"
	 viewBox="0 0 652 652" style="enable-background:new 0 0 652 652;" xml:space="preserve">
<style type="text/css">
	.st0{fill:#DC140A;}
</style>
<path class="st0" d="M392.1,300.8c0-0.2,0-0.4,0-0.6c0-15.7-11.2-26.1-28.4-26.1h-34.8c-1,0-13.8,0.3-13.8,14.3v3.8H364
	C374.4,292.3,386.1,294,392.1,300.8 M376.7,332.5v-0.6c3.9-0.4,9-3.1,12.2-8.2c0,0,0-0.1,0-0.1c0-9.9-11.7-11.9-19.7-12.3
	c0.3,1,0.5,2.1,0.5,3.2c0,6.4-4.5,10.7-11.3,10.7h-20.1v-14h-23.1v70h48.7c20.4,0,30.9-11,30.9-26.8
	C394.7,340.1,385.4,333.2,376.7,332.5 M359.8,362.3h-21.5v-20.9h22c6.6,0,11,4,11,10.3C371.2,358.1,367.2,362.3,359.8,362.3
	 M298.9,269.9c-6.1,0-11,5-11,11.2c0,6.2,4.9,11.2,11,11.2s11-5,11-11.2C309.9,274.9,305,269.9,298.9,269.9 M137.4,286.8L121,346.6
	l-16.1-59.8h-22l-16.1,59.8l-16.4-59.8H26.8l26.8,94.9h24.7L94,323l15.7,58.7h24.8l26.8-94.9H137.4z M189.5,305.7
	c-20.6,0-37.6,15.4-37.6,38c0,22.7,16.9,38,37.4,38c16.2,0,29.1-7.3,35.2-22.4l-20-4.1c-3.8,7-9.9,8.3-15.1,8.3
	c-7.6,0-13.4-5.3-15.2-13.9h52v-5.9C225.6,320.3,209.5,305.7,189.5,305.7z M174.5,335.6c2.1-7.3,8.6-11.3,15-11.3
	c6.5,0,12.1,3.6,14.3,11.3H174.5z M276,305.7c-9.2,0-16.5,2.9-22,7.9v-36.9h-22.6v102.9H254v-5.7c5.5,5,12.8,7.9,22,7.9
	c18.8,0,34.6-15.3,34.6-38C310.6,321.1,294.8,305.7,276,305.7 M271.4,362.3c-9.2,0-17.4-7.4-17.4-18.6c0-11,8.2-18.6,17.4-18.6
	c9.9,0,17.1,7.6,17.1,18.6C288.4,354.9,281.2,362.3,271.4,362.3 M437.6,305.7c-20.6,0-37.6,15.4-37.6,38c0,22.7,16.9,38,37.4,38
	c16.2,0,29.1-7.3,35.2-22.4l-20-4.1c-3.8,7-9.9,8.3-15.1,8.3c-7.6,0-13.4-5.3-15.2-13.9h52v-5.9
	C473.8,320.3,457.7,305.7,437.6,305.7z M422.6,335.6c2.1-7.3,8.6-11.3,15-11.3c6.5,0,12.1,3.6,14.3,11.3H422.6z M535.2,313.6
	c-5.5-5-12.8-7.9-22-7.9c-18.8,0-34.6,15.4-34.6,38c0,22.7,15.8,38,34.6,38c9.2,0,16.5-2.9,22-7.9v5.7h22.6V276.7h-22.6V313.6z
	 M517.8,362.3c-9.9,0-17.1-7.4-17.1-18.6c0-11,7.2-18.6,17.1-18.6c9.2,0,17.4,7.6,17.4,18.6C535.2,354.9,527,362.3,517.8,362.3z
	 M607.1,336l-16.7-3.4c-4.5-1-5.4-3-5.4-5c0-2.6,2-5.6,8-5.6c6.9,0,11.2,4,11.9,8.4l20.6-4.1c-2.8-12.4-14.5-20.6-32.2-20.6
	c-17.9,0-30.5,9.6-30.5,24.3c0,11.3,7.5,18.4,20.6,20.9l14.4,2.9c5.2,1,7.1,2.9,7.1,5.3c0,3.1-3.2,5.7-9.2,5.7
	c-6.1,0-11.6-2.3-12.6-8.4l-22,4.6c2.4,14.7,16.7,20.9,33.3,20.9c18.6,0,32.2-8.3,32.2-24.1C626.8,347,620.5,338.9,607.1,336"/>
</svg>
